<svg width="78" height="78" viewBox="0 0 78 78" fill="none" xmlns="http://www.w3.org/2000/svg">
<g clip-path="url(#clip0_36_131)">
<path d="M44.4844 31.9922H33.5156C32.6742 31.9922 31.9922 32.6744 31.9922 33.5156V44.4844C31.9922 45.3256 32.6742 46.0078 33.5156 46.0078H44.4844C45.3258 46.0078 46.0078 45.3256 46.0078 44.4844V33.5156C46.0078 32.6744 45.3258 31.9922 44.4844 31.9922ZM42.9609 42.9609H35.0391V35.0391H42.9609V42.9609Z" fill="black"/>
<path d="M72.8203 8.22656C69.9642 8.22656 67.6406 10.5501 67.6406 13.4062C67.6406 16.2624 69.9642 18.5859 72.8203 18.5859C75.6765 18.5859 78 16.2624 78 13.4062C78 10.5501 75.6765 8.22656 72.8203 8.22656ZM72.8203 15.5391C71.6442 15.5391 70.6875 14.5823 70.6875 13.4062C70.6875 12.2302 71.6442 11.2734 72.8203 11.2734C73.9964 11.2734 74.9531 12.2302 74.9531 13.4062C74.9531 14.5823 73.9964 15.5391 72.8203 15.5391Z" fill="black"/>
<path d="M64.9882 12.3247C64.7048 12.0415 64.3118 11.8783 63.9111 11.8783C63.5089 11.8783 63.1159 12.0413 62.8325 12.3247C62.5492 12.608 62.3877 13.0011 62.3877 13.4017C62.3877 13.8024 62.5492 14.1954 62.8325 14.4788C63.1174 14.762 63.5089 14.9252 63.9111 14.9252C64.3118 14.9252 64.7048 14.7622 64.9882 14.4788C65.2716 14.1954 65.4346 13.8024 65.4346 13.4017C65.4346 13.0011 65.2716 12.608 64.9882 12.3247Z" fill="black"/>
<path d="M63.3038 40.5234C63.956 42.6384 65.9286 44.1797 68.2546 44.1797C71.1107 44.1797 73.4342 41.8561 73.4342 39C73.4342 36.1439 71.1105 33.8203 68.2546 33.8203C65.9284 33.8203 63.9559 35.3616 63.3038 37.4766H53.9295V25.5938C53.9295 24.7525 53.2475 24.0703 52.4061 24.0703H49.9686V14.9251H58.5032C59.3446 14.9251 60.0266 14.2429 60.0266 13.4017C60.0266 12.5604 59.3446 11.8782 58.5032 11.8782H48.4452C47.6038 11.8782 46.9217 12.5604 46.9217 13.4017V24.0703H40.5233V14.6961C42.6381 14.044 44.1795 12.0716 44.1795 9.74543C44.1795 6.88929 41.856 4.56574 38.9998 4.56574C36.1437 4.56574 33.8202 6.88929 33.8202 9.74543C33.8202 12.0716 35.3616 14.0441 37.4764 14.6961V24.0703H25.5936C24.7522 24.0703 24.0702 24.7525 24.0702 25.5938V28.0312H14.9248V10.1318C17.0421 9.48111 18.5858 7.5075 18.5858 5.17969C18.5858 2.32355 16.2622 0 13.4061 0C10.5499 0 8.2264 2.32355 8.2264 5.17969C8.2264 7.50415 9.76553 9.47548 11.8779 10.129V29.5547C11.8779 30.3959 12.56 31.0781 13.4014 31.0781H24.0702V37.4766H14.6958C14.0436 35.3616 12.0711 33.8203 9.74512 33.8203C6.88898 33.8203 4.56543 36.1439 4.56543 39C4.56543 41.8561 6.88898 44.1797 9.74512 44.1797C12.0713 44.1797 14.0438 42.6384 14.6958 40.5234H24.0702V52.4062C24.0702 53.2475 24.7522 53.9297 25.5936 53.9297H28.0311V63.0749H19.4965C18.6551 63.0749 17.9731 63.7571 17.9731 64.5983C17.9731 65.4396 18.6551 66.1218 19.4965 66.1218H29.5545C30.3959 66.1218 31.078 65.4396 31.078 64.5983V53.9297H37.4764V63.3039C35.3616 63.956 33.8202 65.9284 33.8202 68.2546C33.8202 71.1107 36.1437 73.4343 38.9998 73.4343C41.856 73.4343 44.1795 71.1107 44.1795 68.2546C44.1795 65.9284 42.6381 63.9559 40.5233 63.3039V53.9297H52.4061C53.2475 53.9297 53.9295 53.2475 53.9295 52.4062V49.9688H63.0749V67.8682C60.9576 68.5189 59.4139 70.4925 59.4139 72.8203C59.4139 75.6765 61.7374 78 64.5936 78C67.4497 78 69.7733 75.6765 69.7733 72.8203C69.7733 70.4958 68.2341 68.5245 66.1217 67.871V48.4453C66.1217 47.6041 65.4397 46.9219 64.5983 46.9219H53.9295V40.5234H63.3038ZM68.2546 36.8672C69.4307 36.8672 70.3874 37.8239 70.3874 39C70.3874 40.1761 69.4305 41.1328 68.2546 41.1328C67.0785 41.1328 66.1217 40.1761 66.1217 39C66.1217 37.8239 67.0785 36.8672 68.2546 36.8672ZM13.4061 7.3125C12.23 7.3125 11.2733 6.35578 11.2733 5.17969C11.2733 4.00359 12.23 3.04688 13.4061 3.04688C14.5822 3.04688 15.5389 4.00359 15.5389 5.17969C15.5389 6.35578 14.5822 7.3125 13.4061 7.3125ZM9.74512 41.1328C8.56902 41.1328 7.6123 40.1761 7.6123 39C7.6123 37.8239 8.56902 36.8672 9.74512 36.8672C10.9212 36.8672 11.8779 37.8239 11.8779 39C11.8779 40.1761 10.9212 41.1328 9.74512 41.1328ZM36.867 9.74543C36.867 8.56934 37.8237 7.61262 38.9998 7.61262C40.1759 7.61262 41.1327 8.56934 41.1327 9.74543C41.1327 10.9215 40.1759 11.8782 38.9998 11.8782C37.8237 11.8782 36.867 10.9215 36.867 9.74543ZM41.1327 68.2546C41.1327 69.4307 40.1759 70.3874 38.9998 70.3874C37.8237 70.3874 36.867 69.4307 36.867 68.2546C36.867 67.0785 37.8237 66.1218 38.9998 66.1218C40.1759 66.1218 41.1327 67.0785 41.1327 68.2546ZM50.8827 50.8828H27.117V27.1172H50.8827V50.8828ZM64.5936 70.6875C65.7697 70.6875 66.7264 71.6442 66.7264 72.8203C66.7264 73.9964 65.7697 74.9531 64.5936 74.9531C63.4175 74.9531 62.4608 73.9964 62.4608 72.8203C62.4608 71.6442 63.4175 70.6875 64.5936 70.6875Z" fill="black"/>
<path d="M5.17969 59.4141C2.32355 59.4141 0 61.7376 0 64.5938C0 67.4499 2.32355 69.7734 5.17969 69.7734C8.03583 69.7734 10.3594 67.4499 10.3594 64.5938C10.3594 61.7376 8.03583 59.4141 5.17969 59.4141ZM5.17969 66.7266C4.00359 66.7266 3.04688 65.7698 3.04688 64.5938C3.04688 63.4177 4.00359 62.4609 5.17969 62.4609C6.35578 62.4609 7.3125 63.4177 7.3125 64.5938C7.3125 65.7698 6.35578 66.7266 5.17969 66.7266Z" fill="black"/>
<path d="M15.1689 63.5212C14.8855 63.2378 14.4925 63.0748 14.0918 63.0748C13.6911 63.0748 13.2981 63.2377 13.0147 63.5212C12.7314 63.8044 12.5684 64.1975 12.5684 64.5983C12.5684 64.9989 12.7314 65.392 13.0147 65.6752C13.2981 65.9585 13.6911 66.1217 14.0918 66.1217C14.4925 66.1217 14.8855 65.9587 15.1689 65.6752C15.4522 65.392 15.6152 64.9989 15.6152 64.5983C15.6152 64.1975 15.4522 63.8044 15.1689 63.5212Z" fill="black"/>
</g>
<defs>
<clipPath id="clip0_36_131">
<rect width="78" height="78" fill="white"/>
</clipPath>
</defs>
</svg>
