<svg width="72" height="72" viewBox="0 0 72 72" fill="none" xmlns="http://www.w3.org/2000/svg">
<path d="M69.5546 52.0369C62.996 53.3499 57.8968 53.5807 56.0443 53.6197C51.9099 48.0388 46.7798 43.2701 40.9123 39.5537C40.6 39.3545 40.2287 39.2687 39.8606 39.3108C39.4926 39.3528 39.1502 39.52 38.8908 39.7844C34.3018 44.4222 30.7788 45.9042 30.6455 45.9627C30.0928 46.2398 29.4682 46.3408 28.8563 46.2518C28.2443 46.1629 27.6744 45.8884 27.2233 45.4654C26.3165 44.6334 26.0565 43.2782 26.6383 42.0627C26.6545 42.0237 28.2113 38.2927 32.667 34.8054C33.9898 35.2864 34.9745 35.5952 35.2703 35.6829C35.581 35.7755 35.9119 35.7755 36.2225 35.6829C37.0903 35.4197 43.7853 33.3267 48.085 30.2002C49.7523 30.9444 51.9883 32.1014 54.273 33.8044C54.5526 34.0124 54.8938 34.1294 55.2448 34.1294C63.438 34.1294 69.3921 35.6862 69.4538 35.6992C69.6621 35.7609 69.8807 35.7803 70.0966 35.7561C70.3125 35.7319 70.5213 35.6647 70.7108 35.5584C70.9003 35.4521 71.0665 35.3089 71.1997 35.1372C71.3328 34.9656 71.4302 34.7689 71.4861 34.559C71.5419 34.349 71.5551 34.13 71.5249 33.9149C71.4946 33.6997 71.4215 33.4929 71.3099 33.3065C71.1983 33.1201 71.0505 32.9579 70.8751 32.8297C70.6998 32.7014 70.5005 32.6096 70.289 32.5597C70.0355 32.4914 64.14 30.9477 55.781 30.8827C54.1329 29.701 52.388 28.6606 50.5648 27.7724C53.2168 23.0567 50.9418 8.06117 50.1325 4.06367C50.0874 3.84058 49.9957 3.62949 49.8636 3.44415C49.7314 3.25881 49.5617 3.10336 49.3655 2.98792C49.1608 2.86442 44.2208 0.00117331 35.8975 0.00117331H35.7545C27.441 -0.0670767 22.3385 2.86442 22.1305 2.98792C21.9344 3.10336 21.7647 3.25881 21.6325 3.44415C21.5004 3.62949 21.4087 3.84058 21.3635 4.06367C20.551 8.06117 18.276 23.0567 20.9313 27.7724C19.394 28.5264 17.5773 29.5372 15.7118 30.8827C7.34955 30.9477 1.45405 32.4914 1.2038 32.5597C0.798206 32.6799 0.455496 32.9536 0.248505 33.3225C0.0415145 33.6915 -0.0134379 34.1266 0.0953274 34.5354C0.204093 34.9443 0.468 35.2945 0.830962 35.5119C1.19392 35.7292 1.62732 35.7964 2.03905 35.6992C2.1008 35.6829 8.0548 34.1294 16.248 34.1294C16.5986 34.1292 16.9396 34.0151 17.2198 33.8044C19.5045 32.1014 21.7406 30.9444 23.4111 30.2002C25.1433 31.4612 27.2558 32.5532 29.2318 33.4242C25.1238 37.1129 23.6905 40.6879 23.6678 40.7627C23.0962 41.9338 22.92 43.2588 23.1655 44.5387C23.4111 45.8185 24.0651 46.9842 25.0295 47.8607C25.9443 48.7162 27.0957 49.2761 28.3335 49.4674C29.5712 49.6587 30.8379 49.4726 31.9683 48.9332C32.1243 48.8682 35.6148 47.4349 40.259 43.0019C45.2794 46.3439 49.6915 50.5197 53.3046 55.3487C51.6828 57.8837 46.1253 65.4334 35.813 68.1862C33.9865 67.5232 26.0663 64.2114 17.483 54.1982C17.3308 54.0085 17.1355 53.858 16.9133 53.7591C16.6912 53.6602 16.4486 53.6157 16.2058 53.6294C16.1343 53.6294 8.5553 53.8114 2.0488 52.0629C1.1908 51.8322 0.290549 52.3424 0.0565487 53.2102C-0.177451 54.0779 0.336049 54.9684 1.2038 55.1992C6.9888 56.7559 13.2385 56.9704 15.5168 56.8924C25.7478 68.5762 34.9095 71.3289 35.2995 71.4459C35.5751 71.5243 35.8662 71.5299 36.1445 71.4622C48.2833 68.4267 54.4843 59.6582 56.1906 56.8729C58.2445 56.8274 63.438 56.5772 70.1948 55.2252C70.4041 55.1833 70.6032 55.1007 70.7806 54.9819C70.958 54.8632 71.1103 54.7107 71.2287 54.5331C71.3472 54.3555 71.4295 54.1563 71.471 53.9468C71.5124 53.7374 71.5123 53.5219 71.4704 53.3126C71.4286 53.1032 71.3459 52.9042 71.2272 52.7267C71.1084 52.5493 70.9559 52.3971 70.7783 52.2786C70.6007 52.1602 70.4015 52.0779 70.1921 52.0364C69.9827 51.9949 69.7639 51.9951 69.5546 52.0369ZM24.399 5.48067C25.8648 4.79817 29.7615 3.15367 35.7545 3.25442C41.6565 3.26742 45.6313 4.79817 47.097 5.48067C48.9203 14.9707 48.969 24.9027 47.6918 26.2774C45.212 28.9424 39.0533 31.3799 35.748 32.4297C32.4428 31.3832 26.284 28.9457 23.8043 26.2774C22.5238 24.9027 22.5758 14.9707 24.399 5.48067Z" fill="black"/>
</svg>
