<svg width="78" height="78" viewBox="0 0 78 78" fill="none" xmlns="http://www.w3.org/2000/svg">
<g clip-path="url(#clip0_9_14)">
<path d="M74.1065 2.28472C73.6737 1.58421 73.0685 1.00637 72.3487 0.606381C71.629 0.206389 70.8187 -0.00239612 69.9952 -3.51413e-05H56.914C54.7892 -0.00798357 52.7052 0.582934 50.9009 1.70498C49.0965 2.82703 47.6448 4.43479 46.7122 6.34397L40.209 19.5292C39.4055 19.4966 38.601 19.4966 37.7975 19.5292L31.2942 6.34397C30.362 4.43455 28.9104 2.82657 27.1059 1.70448C25.3015 0.582393 23.2173 -0.00836699 21.0925 -3.51413e-05H8.00475C7.1812 -0.00301926 6.37067 0.2055 5.65081 0.60555C4.93095 1.0056 4.32586 1.58378 3.8935 2.28472C3.00625 3.71472 2.9185 5.46972 3.66275 6.98097L15.6032 31.2097C11.7966 36.2633 9.7406 42.4198 9.74675 48.7467C9.74675 64.8732 22.8702 77.9967 38.9967 77.9967C55.1232 77.9967 68.2467 64.8732 68.2467 48.7467C68.2538 42.4197 66.1978 36.2629 62.3902 31.2097L74.3307 6.98097C74.6974 6.24386 74.8687 5.42499 74.8283 4.60272C74.7879 3.78046 74.5371 2.98233 74.1 2.28472H74.1065ZM6.578 5.54447C6.45685 5.30239 6.40008 5.03319 6.41318 4.7628C6.42627 4.49241 6.50878 4.22996 6.65275 4.00071C6.79413 3.76952 6.99296 3.57886 7.22988 3.4473C7.46681 3.31574 7.73376 3.24775 8.00475 3.24996H21.086C24.1995 3.24996 26.9945 4.98547 28.3725 7.78047L34.3395 19.8737C28.0648 20.8891 22.2924 23.9231 17.8977 28.5155L6.578 5.54447ZM39 74.75C24.6642 74.75 13 63.0857 13 48.75C13 35.178 25.168 22.75 39 22.75C52.832 22.75 65 35.1812 65 48.75C65 63.0857 53.3357 74.75 39 74.75ZM71.422 5.54447L60.099 28.5155C55.7043 23.9231 49.9319 20.8891 43.6572 19.8737L49.6242 7.78047C50.2905 6.41701 51.3274 5.26885 52.6161 4.46756C53.9048 3.66628 55.3932 3.24429 56.9107 3.24996H69.992C70.7915 3.24996 71.2042 3.77646 71.344 4.00071C71.4889 4.22961 71.5719 4.49216 71.585 4.76273C71.5981 5.0333 71.5441 5.30265 71.422 5.54447ZM51.6555 42.25H45.0742L43.3322 35.8767C43.0734 34.915 42.507 34.0644 41.7195 33.4547C40.932 32.845 39.9666 32.5097 38.9707 32.5C37.9871 32.5185 37.0361 32.8563 36.2611 33.4625C35.4861 34.0686 34.9292 34.9102 34.6742 35.8605L32.9257 42.25H26.3445C23.7705 42.25 22.1747 44.3137 22.1747 46.228C22.1747 47.9992 23.2505 49.699 24.9145 50.622L29.2402 53.3162L27.2772 58.6657C26.924 59.6145 26.888 60.6522 27.1746 61.6232C27.4611 62.5941 28.0548 63.446 28.8665 64.051C29.6907 64.6731 30.6967 65.0067 31.7293 65.0003C32.7619 64.9938 33.7637 64.6476 34.58 64.0152L39.0032 60.5962L43.4265 64.0152C44.2444 64.6441 45.2456 64.9879 46.2772 64.9944C47.3089 65.0009 48.3143 64.6695 49.14 64.051C50.8105 62.7932 51.4475 60.6287 50.7292 58.6657L48.7662 53.3162L53.0205 50.6642C54.7527 49.7022 55.8285 48.0025 55.8285 46.228C55.8285 44.3137 54.2327 42.25 51.6587 42.25H51.6555ZM51.3695 47.866L45.9225 51.259C45.6053 51.4565 45.3659 51.7573 45.2445 52.1107C45.1231 52.4641 45.1273 52.8485 45.2562 53.1992L47.6742 59.7902C47.7801 60.0845 47.7893 60.4049 47.7004 60.7048C47.6116 61.0047 47.4293 61.2683 47.1802 61.4575C46.9239 61.6483 46.6125 61.7505 46.293 61.7488C45.9735 61.747 45.6632 61.6413 45.409 61.4477L39.9912 57.2585C39.7075 57.0374 39.3581 56.9173 38.9984 56.9173C38.6387 56.9173 38.2892 57.0374 38.0055 57.2585L32.5877 61.4477C32.3369 61.64 32.0304 61.7459 31.7143 61.7494C31.3983 61.7529 31.0895 61.6539 30.8344 61.4673C30.5793 61.2806 30.3916 61.0163 30.2993 60.714C30.207 60.4116 30.2151 60.0875 30.3225 59.7902L32.7405 53.1992C32.8695 52.8485 32.8736 52.4641 32.7522 52.1107C32.6309 51.7573 32.3914 51.4565 32.0742 51.259L26.559 47.8237C25.9935 47.5085 25.4215 46.8942 25.4215 46.228C25.4215 46.033 25.6392 45.5 26.3412 45.5H34.164C34.5202 45.5003 34.8666 45.3834 35.1498 45.1672C35.4329 44.9511 35.637 44.6477 35.7305 44.304L37.8105 36.699C37.8777 36.4385 38.026 36.2061 38.234 36.0355C38.442 35.8649 38.6989 35.7649 38.9675 35.75C39.2485 35.7558 39.52 35.8532 39.7405 36.0275C39.9611 36.2017 40.1188 36.4432 40.1895 36.7152L42.263 44.3007C42.357 44.6442 42.5612 44.9472 42.8442 45.1633C43.1273 45.3794 43.4734 45.4965 43.8295 45.4967H51.6522C52.3542 45.4967 52.572 46.0297 52.572 46.2247C52.572 46.891 52 47.5052 51.3662 47.8595L51.3695 47.866Z" fill="black"/>
</g>
<defs>
<clipPath id="clip0_9_14">
<rect width="78" height="78" fill="white"/>
</clipPath>
</defs>
</svg>
