<svg width="78" height="78" viewBox="0 0 78 78" fill="none" xmlns="http://www.w3.org/2000/svg">
<path d="M45.5 39C45.5 46.1695 51.3305 52 58.5 52C65.6695 52 71.5 46.1695 71.5 39C71.5 31.8305 65.6695 26 58.5 26C51.3305 26 45.5 31.8305 45.5 39ZM58.5 29.25C63.8755 29.25 68.25 33.6245 68.25 39C68.25 44.3755 63.8755 48.75 58.5 48.75C53.1245 48.75 48.75 44.3755 48.75 39C48.75 33.6245 53.1245 29.25 58.5 29.25ZM39 26C46.1695 26 52 20.1695 52 13C52 5.8305 46.1695 0 39 0C31.8305 0 26 5.8305 26 13C26 20.1695 31.8305 26 39 26ZM39 3.25C44.3755 3.25 48.75 7.6245 48.75 13C48.75 18.3755 44.3755 22.75 39 22.75C33.6245 22.75 29.25 18.3755 29.25 13C29.25 7.6245 33.6245 3.25 39 3.25ZM19.5 52C26.6695 52 32.5 46.1695 32.5 39C32.5 31.8305 26.6695 26 19.5 26C12.3305 26 6.5 31.8305 6.5 39C6.5 46.1695 12.3305 52 19.5 52ZM19.5 29.25C24.8755 29.25 29.25 33.6245 29.25 39C29.25 44.3755 24.8755 48.75 19.5 48.75C14.1245 48.75 9.75 44.3755 9.75 39C9.75 33.6245 14.1245 29.25 19.5 29.25ZM78 66.625V78H74.75V66.625C74.75 62.1465 71.1068 58.5 66.625 58.5H66.2708L57.6875 69.225L49.1075 58.5H48.75C46.5959 58.5026 44.5308 59.3594 43.0076 60.8826C41.4844 62.4058 40.6276 64.4709 40.625 66.625V78H37.375V66.625C37.375 62.1465 33.7285 58.5 29.25 58.5H28.8958L20.3125 69.225L11.7325 58.5H11.375C9.22091 58.5026 7.15578 59.3594 5.63261 60.8826C4.10943 62.4058 3.25258 64.4709 3.25 66.625V78H0V66.625C0 60.3525 5.1025 55.25 11.375 55.25H13.2925L20.3125 64.025L27.3325 55.25H29.25C33.41 55.25 37.0175 57.5185 39 60.8595C39.9966 59.1569 41.4202 57.7439 43.1302 56.7601C44.8401 55.7763 46.7772 55.2558 48.75 55.25H50.6675L57.6875 64.025L64.7075 55.25H66.625C72.8975 55.25 78 60.3525 78 66.625Z" fill="black"/>
</svg>
